<svg width="21" height="21" viewBox="0 0 21 21" fill="none" xmlns="http://www.w3.org/2000/svg">
<path fill-rule="evenodd" clip-rule="evenodd" d="M20.6509 6.14279C21.0191 7.02951 20.7896 8.05195 20.0778 8.69623C19.603 9.12505 19.3312 9.73429 19.3293 10.374C19.3274 11.0138 19.5956 11.6246 20.0678 12.0562C20.7778 12.6994 21.0077 13.719 20.6423 14.6046C20.2768 15.4902 19.3947 16.051 18.4378 16.0062C17.8008 15.9775 17.1812 16.218 16.7303 16.6688C16.2795 17.1196 16.039 17.7393 16.0678 18.3762C16.0886 19.31 15.5354 20.1612 14.6737 20.5214C13.8119 20.8815 12.8175 20.6771 12.1678 20.0062C11.7375 19.5328 11.1275 19.2628 10.4878 19.2628C9.84802 19.2628 9.23798 19.5328 8.80775 20.0062C8.17361 20.7591 7.1265 21.0175 6.21492 20.646C5.30335 20.2746 4.73506 19.3579 4.80775 18.3762C4.83649 17.7393 4.59603 17.1196 4.14519 16.6688C3.69435 16.218 3.07469 15.9775 2.43775 16.0062C1.504 16.0271 0.652777 15.4739 0.292612 14.6122C-0.067553 13.7504 0.136863 12.756 0.807754 12.1062C1.28121 11.676 1.55116 11.066 1.55116 10.4262C1.55116 9.7865 1.28121 9.17646 0.807754 8.74623C0.054871 8.11209 -0.20351 7.06498 0.167958 6.15341C0.539427 5.24183 1.45608 4.67354 2.43775 4.74623C3.07469 4.77497 3.69435 4.53451 4.14519 4.08367C4.59603 3.63283 4.83649 3.01317 4.80775 2.37623C4.76296 1.41926 5.32378 0.53718 6.20937 0.171736C7.09495 -0.193707 8.11463 0.0361643 8.75775 0.746234C9.18798 1.21969 9.79802 1.48964 10.4378 1.48964C11.0775 1.48964 11.6875 1.21969 12.1178 0.746234C12.7609 0.0361643 13.7806 -0.193707 14.6661 0.171736C15.5517 0.53718 16.1125 1.41926 16.0678 2.37623C16.039 3.01317 16.2795 3.63283 16.7303 4.08367C17.1812 4.53451 17.8008 4.77497 18.4378 4.74623C19.3966 4.69687 20.2828 5.25608 20.6509 6.14279ZM8.59775 8.12623C8.59775 7.71202 8.26197 7.37623 7.84775 7.37623C7.43579 7.38162 7.10314 7.71427 7.09775 8.12623C7.09775 8.54045 7.43354 8.87623 7.84775 8.87623C8.26197 8.87623 8.59775 8.54045 8.59775 8.12623ZM13.1178 13.3762C12.7035 13.3762 12.3678 13.0404 12.3678 12.6262C12.3678 12.212 12.7035 11.8762 13.1178 11.8762C13.532 11.8762 13.8678 12.212 13.8678 12.6262C13.8624 13.0382 13.5297 13.3708 13.1178 13.3762ZM8.08775 13.7862L13.8478 8.01623V8.02623C14.1231 7.73072 14.115 7.27022 13.8294 6.98461C13.5438 6.699 13.0833 6.69088 12.7878 6.96623L7.02775 12.7262C6.88481 12.8655 6.80418 13.0566 6.80418 13.2562C6.80418 13.4558 6.88481 13.6469 7.02775 13.7862C7.1656 13.9309 7.358 14.0107 7.55775 14.0062C7.75682 14.0072 7.94787 13.9279 8.08775 13.7862Z" fill="#34DF31"/>
<rect width="10" height="10" transform="translate(5 5)" fill="#34DF31"/>
<path d="M9 10.5L10.3232 11.8232C10.4209 11.9209 10.5791 11.9209 10.6768 11.8232L14.5 8" stroke="white" stroke-linecap="round"/>
</svg>
